<svg width="632" height="928" viewBox="0 0 632 928" fill="none" xmlns="http://www.w3.org/2000/svg">
<path fill-rule="evenodd" clip-rule="evenodd" d="M406.367 365.408C404.648 363.614 403.004 361.777 401.435 359.899C365.49 316.889 368.548 252.768 409.626 213.415L554.77 74.3666C597.641 33.2951 665.691 34.7545 706.763 77.6264C747.834 120.498 746.375 188.548 703.503 229.619L659.653 271.628L659.653 271.629C646.636 284.233 645.197 303.916 656.467 315.68C656.794 316.021 657.128 316.352 657.469 316.673L657.442 316.698L700.668 361.818C741.739 404.69 740.28 472.739 697.408 513.811C654.536 554.882 586.486 553.423 545.415 510.551L406.367 365.408Z" fill="#93D1AC"/>
<path fill-rule="evenodd" clip-rule="evenodd" d="M218.142 415.014C219.899 413.258 221.701 411.575 223.544 409.966C265.773 373.106 329.945 374.789 370.17 415.014L512.299 557.142C554.28 599.124 554.28 667.189 512.299 709.17C470.317 751.152 402.252 751.152 360.271 709.17L317.332 666.231L317.331 666.231C304.45 653.488 284.741 652.471 273.222 663.991C272.887 664.325 272.564 664.666 272.251 665.014L272.225 664.988L228.042 709.17C186.061 751.152 117.995 751.152 76.0139 709.17C34.0326 667.189 34.0326 599.124 76.0139 557.142L218.142 415.014Z" fill="#9A87BF"/>
<circle cx="628.445" cy="151.271" r="77.5" transform="rotate(46.2286 628.445 151.271)" fill="white"/>
<circle cx="386.122" cy="587.972" r="77.5" transform="rotate(89.9039 386.122 587.972)" fill="white"/>
<path d="M682.058 207.234C667.215 221.453 647.332 229.194 626.783 228.753C606.233 228.312 586.7 219.726 572.481 204.884C558.262 190.041 550.522 170.159 550.962 149.609C551.403 129.059 559.989 109.527 574.831 95.3075L628.445 151.271L682.058 207.234Z" fill="#00004A"/>
<path d="M386.252 665.472C365.698 665.507 345.972 657.375 331.414 642.865C316.855 628.355 308.657 608.656 308.622 588.102C308.588 567.548 316.72 547.822 331.23 533.263C345.739 518.705 365.438 510.507 385.992 510.472L386.122 587.972L386.252 665.472Z" fill="#00004A"/>
<circle cx="494.855" cy="279.251" r="77.5" transform="rotate(46.2286 494.855 279.251)" fill="white"/>
<circle cx="201.123" cy="588.283" r="77.5" transform="rotate(89.9039 201.123 588.283)" fill="white"/>
<path d="M548.468 335.214C533.626 349.433 513.743 357.174 493.193 356.733C472.644 356.292 453.111 347.706 438.892 332.864C424.673 318.021 416.932 298.139 417.373 277.589C417.814 257.039 426.399 237.507 441.242 223.288L494.855 279.251L548.468 335.214Z" fill="#00004A"/>
<path d="M201.253 665.782C180.698 665.817 160.972 657.685 146.414 643.175C131.855 628.665 123.657 608.967 123.623 588.413C123.588 567.858 131.72 548.132 146.23 533.574C160.74 519.015 180.438 510.817 200.993 510.783L201.123 588.283L201.253 665.782Z" fill="#00004A"/>
<path d="M682.365 433.25C683.44 441.659 682.869 450.085 680.685 458.047C678.501 466.009 674.746 473.351 669.635 479.655C664.524 485.958 658.157 491.098 650.897 494.783C643.638 498.468 635.628 500.624 627.325 501.129C619.022 501.634 610.588 500.478 602.506 497.726C594.424 494.975 586.851 490.682 580.219 485.093C573.588 479.504 568.028 472.729 563.858 465.153C559.687 457.577 556.987 449.35 555.912 440.941L619.139 437.095L682.365 433.25Z" fill="#00004A"/>
</svg>
