<svg width="1436" height="949" viewBox="0 0 1436 949" fill="none" xmlns="http://www.w3.org/2000/svg">
<g clip-path="url(#clip0)">
<path fill-rule="evenodd" clip-rule="evenodd" d="M1214.37 628.408C1212.65 626.614 1211 624.777 1209.44 622.899C1173.49 579.889 1176.55 515.768 1217.63 476.415L1362.77 337.367C1405.64 296.295 1473.69 297.755 1514.76 340.626C1555.83 383.498 1554.37 451.548 1511.5 492.619L1467.65 534.628L1467.65 534.629C1454.64 547.233 1453.2 566.916 1464.47 578.68C1464.79 579.021 1465.13 579.352 1465.47 579.673L1465.44 579.698L1508.67 624.818C1549.74 667.69 1548.28 735.739 1505.41 776.811C1462.54 817.882 1394.49 816.423 1353.41 773.551L1214.37 628.408Z" fill="#93D1AC"/>
<path fill-rule="evenodd" clip-rule="evenodd" d="M1026.14 678.014C1027.9 676.258 1029.7 674.575 1031.54 672.966C1073.77 636.106 1137.95 637.789 1178.17 678.014L1320.3 820.142C1362.28 862.124 1362.28 930.189 1320.3 972.17C1278.32 1014.15 1210.25 1014.15 1168.27 972.17L1125.33 929.231L1125.33 929.231C1112.45 916.488 1092.74 915.471 1081.22 926.991C1080.89 927.325 1080.56 927.666 1080.25 928.014L1080.22 927.988L1036.04 972.17C994.061 1014.15 925.995 1014.15 884.014 972.17C842.033 930.189 842.033 862.124 884.014 820.142L1026.14 678.014Z" fill="#9A87BF"/>
<circle cx="1436.44" cy="414.271" r="77.5" transform="rotate(46.2286 1436.44 414.271)" fill="white"/>
<circle cx="1194.12" cy="850.972" r="77.5" transform="rotate(89.9039 1194.12 850.972)" fill="white"/>
<path d="M1490.06 470.234C1475.22 484.453 1455.33 492.194 1434.78 491.753C1414.23 491.312 1394.7 482.726 1380.48 467.884C1366.26 453.041 1358.52 433.159 1358.96 412.609C1359.4 392.059 1367.99 372.527 1382.83 358.308L1436.44 414.271L1490.06 470.234Z" fill="#00004A"/>
<path d="M1194.25 928.472C1173.7 928.507 1153.97 920.375 1139.41 905.865C1124.86 891.355 1116.66 871.656 1116.62 851.102C1116.59 830.548 1124.72 810.822 1139.23 796.263C1153.74 781.705 1173.44 773.507 1193.99 773.472L1194.12 850.972L1194.25 928.472Z" fill="#00004A"/>
<circle cx="1302.85" cy="542.251" r="77.5" transform="rotate(46.2286 1302.85 542.251)" fill="white"/>
<circle cx="1009.12" cy="851.283" r="77.5" transform="rotate(89.9039 1009.12 851.283)" fill="white"/>
<path d="M1356.47 598.214C1341.63 612.433 1321.74 620.174 1301.19 619.733C1280.64 619.292 1261.11 610.706 1246.89 595.864C1232.67 581.021 1224.93 561.139 1225.37 540.589C1225.81 520.039 1234.4 500.507 1249.24 486.288L1302.86 542.251L1356.47 598.214Z" fill="#00004A"/>
<path d="M1009.25 928.782C988.698 928.817 968.972 920.685 954.414 906.175C939.855 891.665 931.657 871.967 931.623 851.413C931.588 830.858 939.72 811.132 954.23 796.574C968.74 782.015 988.438 773.817 1008.99 773.783L1009.12 851.283L1009.25 928.782Z" fill="#00004A"/>
<path d="M1490.37 696.25C1491.44 704.659 1490.87 713.085 1488.68 721.047C1486.5 729.009 1482.75 736.351 1477.63 742.655C1472.52 748.958 1466.16 754.098 1458.9 757.783C1451.64 761.468 1443.63 763.624 1435.32 764.129C1427.02 764.634 1418.59 763.478 1410.51 760.726C1402.42 757.975 1394.85 753.682 1388.22 748.093C1381.59 742.504 1376.03 735.729 1371.86 728.153C1367.69 720.577 1364.99 712.35 1363.91 703.941L1427.14 700.095L1490.37 696.25Z" fill="#00004A"/>
</g>
<defs>
<clipPath id="clip0">
<rect width="1440" height="2444" fill="white"/>
</clipPath>
</defs>
</svg>
