<svg width="453" height="228" viewBox="0 0 453 228" fill="none" xmlns="http://www.w3.org/2000/svg">
<path d="M4.8093 43.0438C4.8093 67.5836 48.8329 62.6509 48.8329 72.6395C48.8329 75.7224 46.9832 78.1887 39.091 78.1887C16.6476 78.1887 12.9481 66.1038 7.76887 66.1038C5.79582 66.1038 4.31604 67.2136 4.31604 70.2965C4.31604 85.2177 11.0984 93.2332 29.5957 93.2332C43.407 93.2332 55.9852 82.998 55.9852 71.0364C55.9852 51.5526 18.9906 50.1961 18.9906 37.0013C18.9906 33.5485 21.3336 31.3288 24.7864 31.3288C34.035 31.3288 40.9407 44.7702 45.8733 44.7702C49.0795 44.7702 50.1894 42.6739 51.6691 37.0013C53.2722 30.8356 56.2318 30.219 56.2318 27.876C56.2318 26.1496 55.6152 24.6698 53.2722 24.6698C51.4225 24.6698 48.2163 25.2864 45.1334 25.2864C37.8578 25.2864 31.3221 24.7931 25.5263 24.7931C11.9616 24.7931 4.8093 32.562 4.8093 43.0438ZM102.427 18.874C102.427 24.7931 114.758 38.1112 114.758 56.6085C114.758 65.7338 110.319 82.2581 99.8373 82.2581C88.4923 82.2581 78.3804 73.7493 78.3804 49.2096C78.3804 40.3309 81.34 37.3713 85.4094 37.3713C88.1223 37.3713 96.0145 40.8241 99.2207 40.8241C101.687 41.1941 103.413 39.9609 103.413 37.3713C103.413 33.1786 95.2746 24.4232 89.972 24.4232C78.8737 24.4232 63.4592 44.277 63.4592 68.3235C63.4592 86.4508 69.995 92.6166 76.7773 92.6166C84.1762 92.6166 90.8353 89.5337 98.2342 89.5337C103.167 89.5337 120.308 92.2466 123.884 92.2466C126.967 92.2466 128.076 90.6435 128.076 87.5606C128.076 83.4912 121.664 66.3504 121.664 50.936C121.664 37.4946 128.693 17.3942 128.693 12.8315C128.693 10.4885 127.707 8.39218 124.624 8.39218C121.294 8.39218 114.882 13.4481 106.62 14.6813C104.4 15.0512 102.427 15.9144 102.427 18.874ZM154.53 61.1712C154.53 44.6469 160.819 32.6853 160.819 28.4926C160.819 25.4097 159.585 23.6833 156.256 23.6833C153.913 23.6833 151.57 25.0398 143.678 25.7797C134.676 26.6429 133.689 27.3827 133.689 30.3423C133.689 35.7682 148.24 48.223 148.24 61.1712C148.24 71.653 135.539 82.5047 135.539 88.3005C135.539 90.8902 136.895 92 140.225 92C142.075 92 147.871 91.6301 152.557 91.6301C156.133 91.6301 160.572 92 161.682 92C164.271 92 165.628 90.6435 165.628 87.5606C165.628 82.998 154.53 72.0229 154.53 61.1712ZM147.871 16.9009C153.543 16.9009 162.052 11.1051 162.052 5.3093C162.052 3.08962 160.819 1.73315 157.859 1.73315C156.379 1.73315 154.16 1.85647 151.323 1.85647C144.418 1.85647 141.212 0.253369 139.362 0.253369C136.402 0.253369 135.292 1.85647 135.292 3.58289C135.292 8.51549 141.951 16.9009 147.871 16.9009ZM228.756 24.9164C226.166 24.9164 223.946 25.4097 220.617 25.4097C216.671 25.4097 211.368 24.9164 205.942 24.9164C184.239 24.9164 173.141 47.3598 173.141 73.2561C173.141 87.4373 176.963 93.1098 186.705 93.1098C199.53 93.1098 214.081 71.8996 214.081 62.4043C214.081 59.938 212.601 58.3349 209.765 58.3349C205.942 58.3349 204.833 60.4313 203.969 67.7069C202.983 75.8457 200.64 79.0519 196.201 79.0519C190.405 79.0519 187.445 75.3524 187.445 57.595C187.445 39.591 192.008 34.4117 198.913 34.4117C208.409 34.4117 223.823 41.4407 223.823 54.2655C223.823 69.6799 210.505 79.2985 210.505 86.4508C210.505 90.8902 212.355 92.1233 216.671 92.1233C218.891 92.1233 221.603 91.8767 224.316 91.7534C228.016 91.7534 232.085 92 235.415 92C237.511 92 239.114 89.5337 239.114 87.4373C239.114 81.8881 230.729 66.1038 230.729 50.6894C230.729 44.6469 234.182 33.4252 234.182 29.9724C234.182 27.2594 232.948 24.9164 228.756 24.9164Z" fill="white"/>
<path d="M89.1185 135.793C86.0356 135.793 84.4325 137.026 84.4325 138.999C84.4325 144.918 97.2573 155.894 97.2573 176.117C97.2573 200.287 97.9972 203.37 105.519 203.37C117.234 203.37 122.784 174.514 129.319 174.514C136.225 174.514 149.543 203.37 159.408 203.37C163.601 203.37 165.327 201.15 165.944 196.958C169.15 171.801 179.385 164.156 179.385 148.865C179.385 141.096 174.206 135.916 166.191 135.916C162.491 135.916 158.175 136.286 155.216 136.286C151.516 136.286 147.447 135.793 145.844 135.793C142.761 135.793 141.774 137.273 141.774 138.999C141.774 146.028 166.191 146.028 166.191 163.292C166.191 172.048 162.491 179.693 157.559 179.693C146.953 179.693 139.678 160.086 138.198 153.551C137.335 149.604 136.842 148.125 133.882 148.125C131.416 148.125 130.306 149.111 128.703 154.29C126.853 160.703 120.194 178.83 112.548 178.83C107.369 178.83 104.04 171.678 104.04 163.662C104.04 146.645 123.647 144.055 123.647 138.876C123.647 137.026 122.537 135.546 119.454 135.546C114.398 135.546 107.986 136.656 101.203 136.656C94.9143 136.656 91.3381 135.793 89.1185 135.793ZM204.747 172.171C204.747 155.647 211.036 143.685 211.036 139.493C211.036 136.41 209.803 134.683 206.473 134.683C204.13 134.683 201.787 136.04 193.895 136.78C184.893 137.643 183.907 138.383 183.907 141.342C183.907 146.768 198.458 159.223 198.458 172.171C198.458 182.653 185.756 193.505 185.756 199.301C185.756 201.89 187.113 203 190.442 203C192.292 203 198.088 202.63 202.774 202.63C206.35 202.63 210.789 203 211.899 203C214.489 203 215.845 201.644 215.845 198.561C215.845 193.998 204.747 183.023 204.747 172.171ZM198.088 127.901C203.76 127.901 212.269 122.105 212.269 116.309C212.269 114.09 211.036 112.733 208.076 112.733C206.597 112.733 204.377 112.856 201.541 112.856C194.635 112.856 191.429 111.253 189.579 111.253C186.619 111.253 185.51 112.856 185.51 114.583C185.51 119.515 192.169 127.901 198.088 127.901ZM226.687 136.163C224.098 136.163 222.371 137.52 222.371 140.479C222.371 146.645 234.086 156.88 234.086 168.348C234.086 176.734 222.865 189.559 222.865 198.067C222.865 201.52 224.591 203.247 227.057 203.247C230.387 203.247 231.62 202.63 237.169 202.63C240.499 202.63 243.582 203.247 247.404 203.247C250.611 203.247 252.09 201.15 252.09 198.931C252.09 191.655 240.992 179.447 240.992 162.429C240.992 155.77 244.321 150.098 252.09 150.098C264.668 150.098 274.287 156.017 274.287 162.553C274.287 171.555 264.299 177.967 264.299 191.655C264.299 199.67 269.724 203.37 279.96 203.37C288.345 203.37 291.551 202.383 291.551 199.054C291.551 195.478 280.453 187.092 280.453 170.938C280.453 160.703 285.509 153.427 285.509 146.152C285.509 136.78 281.686 134.807 276.383 134.807C266.148 134.807 261.462 143.685 251.104 143.685C242.842 143.685 237.539 136.163 226.687 136.163ZM314.337 152.811C314.337 149.604 315.816 148.371 318.283 148.371C320.379 148.371 323.832 149.604 326.668 149.604C330.738 149.604 331.847 147.508 331.847 140.726C331.847 137.273 330.614 136.163 326.668 136.163C324.942 136.163 320.379 136.41 315.57 136.41C313.473 136.41 312.364 135.793 312.364 133.573C312.364 130.737 314.337 125.805 314.337 122.722C314.337 120.995 313.473 119.392 311.13 119.392C308.417 119.392 306.938 121.365 303.238 129.011C298.182 139.493 293.373 141.959 293.373 146.768C293.373 147.878 294.606 148.988 297.072 148.988C298.676 148.988 301.635 148.618 303.115 148.618C306.198 148.618 307.184 149.235 307.184 155.77C307.184 174.021 298.676 183.763 298.676 194.985C298.676 201.52 304.471 204.11 313.473 204.11C327.038 204.11 332.957 196.094 332.957 191.532C332.957 189.929 332.341 187.832 329.628 187.832C328.641 187.832 327.531 188.079 325.188 188.079C316.926 188.079 314.337 180.187 314.337 152.811ZM336.658 175.254C336.658 190.175 344.673 204.233 369.583 204.233C387.464 204.233 394.246 190.422 394.246 184.503C394.246 181.296 393.506 179.693 391.533 179.693C386.724 179.693 385.861 189.065 371.433 189.065C359.471 189.065 349.729 182.9 349.729 156.51C349.729 147.878 352.565 145.042 359.101 145.042C369.83 145.042 380.928 154.414 380.928 162.923C380.928 165.635 378.708 166.622 376.489 166.622C370.446 166.622 365.39 164.772 363.417 164.772C361.074 164.772 359.224 166.129 359.224 168.965C359.224 172.664 361.814 174.021 364.28 174.021C372.666 174.021 381.051 171.308 387.587 171.308C394.123 171.308 395.479 168.225 395.479 163.909C395.479 157.743 392.273 148.001 387.587 139.246C385.861 135.916 384.011 135.546 381.298 135.546C378.708 135.546 373.899 136.78 368.72 136.78C363.17 136.78 358.608 136.04 354.785 136.04C348.249 136.04 336.658 155.647 336.658 175.254ZM450.391 140.356C450.391 136.163 449.651 135.916 445.582 135.916C441.019 135.916 439.046 136.656 433.374 147.385C429.427 154.907 426.838 155.77 423.015 155.77C421.289 155.77 420.549 154.537 420.549 152.811C420.549 149.481 422.275 144.055 422.275 140.726C422.275 137.889 421.042 136.163 418.699 136.163C416.849 136.163 414.753 136.41 412.41 136.41C409.944 136.41 406.121 136.163 404.518 136.163C402.545 136.163 400.448 137.52 400.448 140.356C400.448 146.645 414.383 156.757 414.383 168.348C414.383 177.104 401.681 190.422 401.681 199.301C401.681 201.89 403.408 203.247 405.751 203.247C409.45 203.247 412.78 202.63 417.466 202.63C422.768 202.63 427.454 203.247 433.62 203.247C436.086 203.247 437.196 201.027 437.196 198.684C437.196 191.408 420.795 180.557 420.795 168.718C420.795 165.265 423.015 160.58 429.921 160.58C435.347 160.58 441.142 162.306 444.225 162.306C448.295 162.306 448.788 158.976 448.788 154.784C448.788 150.591 450.391 143.809 450.391 140.356Z" fill="#9A87BF"/>
<rect x="259.784" y="19.1536" width="192.372" height="73.1671" rx="30.4178" fill="#93D1AC"/>
<mask id="mask0" mask-type="alpha" maskUnits="userSpaceOnUse" x="259" y="19" width="194" height="74">
<rect x="259.784" y="19.1536" width="192.372" height="73.1671" rx="30.4178" fill="#93D1AC"/>
</mask>
<g mask="url(#mask0)">
<ellipse cx="323.086" cy="37.6509" rx="42.7493" ry="40.6941" fill="white"/>
<ellipse cx="420.916" cy="55.7372" rx="42.7493" ry="40.6941" fill="white"/>
<path d="M323.086 -3.04312C317.472 -3.04312 311.913 -1.99054 306.727 0.0545301C301.54 2.0996 296.828 5.0971 292.858 8.8759C288.888 12.6547 285.739 17.1408 283.591 22.078C281.443 27.0152 280.337 32.3069 280.337 37.6509C280.337 42.995 281.443 48.2867 283.591 53.2239C285.739 58.1611 288.888 62.6472 292.858 66.426C296.828 70.2048 301.54 73.2023 306.727 75.2474C311.913 77.2924 317.472 78.345 323.086 78.345L323.086 37.6509V-3.04312Z" fill="#00004A"/>
<path d="M420.916 15.0431C415.303 15.0431 409.744 16.0957 404.557 18.1408C399.37 20.1858 394.658 23.1833 390.688 26.9621C386.718 30.7409 383.57 35.227 381.421 40.1642C379.273 45.1015 378.167 50.3932 378.167 55.7372C378.167 61.0812 379.273 66.3729 381.421 71.3101C383.57 76.2474 386.718 80.7335 390.688 84.5122C394.658 88.291 399.37 91.2885 404.557 93.3336C409.744 95.3787 415.303 96.4313 420.916 96.4313L420.916 55.7372V15.0431Z" fill="#00004A"/>
<path d="M367.65 68.4457L375.993 103.603L362.547 105.474L367.65 68.4457Z" fill="#00004A"/>
<path d="M367.65 68.4457L362.958 107.941L341.802 93.6943L367.65 68.4457Z" fill="#00004A" fill-opacity="0.8"/>
</g>
<rect x="13.1536" y="149.868" width="9.04313" height="17.2642" rx="4.52156" fill="#00004A"/>
<rect x="11" y="131" width="57.4157" height="73" rx="28.7079" fill="#9A87BF"/>
<rect x="11.8202" y="131" width="63.9775" height="73" rx="30.3483" fill="#9A87BF" fill-opacity="0.6"/>
<rect x="39.7079" y="150.685" width="18.0449" height="34.4494" rx="9.02247" fill="#00004A"/>
<rect x="15.9214" y="150.685" width="18.0449" height="34.4494" rx="9.02247" fill="#00004A"/>
<rect x="28.2247" y="188.416" width="18.0449" height="4.10112" rx="2.05056" fill="#00004A"/>
</svg>
